<svg xmlns="http://www.w3.org/2000/svg" xmlns:xlink="http://www.w3.org/1999/xlink" width="42" height="42" viewBox="0 0 42 42">
  <defs>
    <filter id="패스_30">
      <feOffset dy="1" input="SourceAlpha"/>
      <feGaussianBlur stdDeviation="2" result="blur"/>
      <feFlood flood-opacity="0.322" result="color"/>
      <feComposite operator="out" in="SourceGraphic" in2="blur"/>
      <feComposite operator="in" in="color"/>
      <feComposite operator="in" in2="SourceGraphic"/>
    </filter>
    <filter id="패스_31">
      <feOffset dy="3" input="SourceAlpha"/>
      <feGaussianBlur stdDeviation="3" result="blur-2"/>
      <feFlood flood-opacity="0.161" result="color-2"/>
      <feComposite operator="out" in="SourceGraphic" in2="blur-2"/>
      <feComposite operator="in" in="color-2"/>
      <feComposite operator="in" in2="SourceGraphic"/>
    </filter>
  </defs>
  <g id="그룹_138" data-name="그룹 138" transform="translate(-81 -180)">
    <rect id="사각형_1144" data-name="사각형 1144" width="42" height="42" transform="translate(81 180)" fill="#fff"/>
    <g id="그룹_134" data-name="그룹 134" transform="translate(-289.343 -132.563)">
      <g id="그룹_9" data-name="그룹 9" transform="translate(376.689 313.568)">
        <g data-type="innerShadowGroup">
          <path id="패스_30-2" data-name="패스 30" d="M500.715,325.43A12.274,12.274,0,0,0,489.344,313.6v-.011c-.24-.014-.481-.022-.725-.022h-.17c-.243,0-.485.008-.724.022v.011a12.274,12.274,0,0,0-11.371,11.829,6.989,6.989,0,0,0-.557,9.989h0a7.026,7.026,0,0,0,.778.728c1.358,1.344,4.107,4.406,5.056,7.987,0-1.13,3.091-2.046,6.9-2.046s6.9.916,6.9,2.046c.948-3.582,3.7-6.644,5.056-7.987a7.031,7.031,0,0,0,.778-.728h0a6.989,6.989,0,0,0-.557-9.989Z" transform="translate(-473.959 -313.568)" fill="#959595"/>
          <g transform="matrix(1, 0, 0, 1, -6.35, -1.01)" filter="url(#패스_30)">
            <path id="패스_30-3" data-name="패스 30" d="M500.715,325.43A12.274,12.274,0,0,0,489.344,313.6v-.011c-.24-.014-.481-.022-.725-.022h-.17c-.243,0-.485.008-.724.022v.011a12.274,12.274,0,0,0-11.371,11.829,6.989,6.989,0,0,0-.557,9.989h0a7.026,7.026,0,0,0,.778.728c1.358,1.344,4.107,4.406,5.056,7.987,0-1.13,3.091-2.046,6.9-2.046s6.9.916,6.9,2.046c.948-3.582,3.7-6.644,5.056-7.987a7.031,7.031,0,0,0,.778-.728h0a6.989,6.989,0,0,0-.557-9.989Z" transform="translate(-467.61 -312.56)" fill="#fff"/>
          </g>
        </g>
      </g>
      <g id="그룹_10" data-name="그룹 10" transform="translate(384.36 342.62)">
        <g data-type="innerShadowGroup">
          <path id="패스_31-2" data-name="패스 31" d="M615.856,824.8c-3.813,0-6.9.916-6.9,2.046v6.165c0-1.13,3.091-2.046,6.9-2.046s6.9.916,6.9,2.046v-6.165C622.76,825.719,619.669,824.8,615.856,824.8Z" transform="translate(-608.952 -824.803)" fill="#959595"/>
          <g transform="matrix(1, 0, 0, 1, -14.02, -30.06)" filter="url(#패스_31)">
            <path id="패스_31-3" data-name="패스 31" d="M615.856,824.8c-3.813,0-6.9.916-6.9,2.046v6.165c0-1.13,3.091-2.046,6.9-2.046s6.9.916,6.9,2.046v-6.165C622.76,825.719,619.669,824.8,615.856,824.8Z" transform="translate(-594.94 -794.75)" fill="#fff"/>
          </g>
        </g>
        <ellipse id="타원_2" data-name="타원 2" cx="6.904" cy="2.046" rx="6.904" ry="2.046" transform="translate(0 6.847)" fill="#959595"/>
      </g>
      <g id="그룹_12" data-name="그룹 12" transform="translate(378.573 325.478)">
        <g id="패스_2035" data-name="패스 2035" transform="translate(0.23 -0.215)" fill="#fff">
          <path d="M 20.07616996765137 10.49929428100586 C 19.4912052154541 10.31404304504395 15.9836254119873 9.252229690551758 12.45226955413818 9.252229690551758 C 8.926745414733887 9.252229690551758 5.504471302032471 10.31046199798584 4.922074794769287 10.49926090240479 C 2.476594686508179 10.45285034179688 0.5 8.228066444396973 0.5 5.5 C 0.5 2.742990016937256 2.51869010925293 0.5 5 0.5 L 20 0.5 C 22.48130989074707 0.5 24.5 2.742990016937256 24.5 5.5 C 24.5 8.228739738464355 22.52248573303223 10.45394706726074 20.07616996765137 10.49929428100586 Z" stroke="none"/>
          <path d="M 5 1 C 2.794389724731445 1 1 3.01869010925293 1 5.5 C 1 7.925274848937988 2.714384078979492 9.908592224121094 4.851341247558594 9.996933937072754 C 5.644163131713867 9.745735168457031 8.998447418212891 8.752229690551758 12.45226955413818 8.752229690551758 C 15.91372680664062 8.752229690551758 19.34908294677734 9.750326156616211 20.1453800201416 9.997068405151367 C 22.28382682800293 9.910576820373535 24 7.926486015319824 24 5.5 C 24 3.01869010925293 22.20561027526855 1 20 1 L 5 1 M 5 0 L 20 0 C 22.76141929626465 0 25 2.462430000305176 25 5.5 C 25 8.537569999694824 22.76141929626465 11 20 11 C 20 11 16.2022705078125 9.752229690551758 12.45226955413818 9.752229690551758 C 8.7022705078125 9.752229690551758 5 11 5 11 C 2.238580703735352 11 0 8.537569999694824 0 5.5 C 0 2.462430000305176 2.238580703735352 0 5 0 Z" stroke="none" fill="#6e6e73"/>
        </g>
      </g>
      <g id="그룹_15" data-name="그룹 15" transform="translate(370.828 335.793)">
        <rect id="사각형_3" data-name="사각형 3" width="6.262" height="13.387" transform="translate(0.699 3.026) rotate(-27.075)" fill="#959595"/>
        <rect id="사각형_4" data-name="사각형 4" width="1.073" height="13.387" transform="translate(0 3.383) rotate(-27.076)" fill="#6e6e73"/>
        <rect id="사각형_5" data-name="사각형 5" width="0.537" height="13.387" transform="matrix(0.89, -0.455, 0.455, 0.89, 6.139, 0.245)" fill="#959595"/>
        <rect id="사각형_6" data-name="사각형 6" width="1.667" height="6.44" transform="translate(8.199 3.093) rotate(-27.076)" fill="#959595"/>
      </g>
      <g id="그룹_16" data-name="그룹 16" transform="translate(399.147 335.789)">
        <rect id="사각형_7" data-name="사각형 7" width="13.387" height="6.222" transform="translate(0.379 12.114) rotate(-62.925)" fill="#959595"/>
        <rect id="사각형_8" data-name="사각형 8" width="13.387" height="1.013" transform="matrix(0.455, -0.89, 0.89, 0.455, 5.716, 14.842)" fill="#6e6e73"/>
        <rect id="사각형_9" data-name="사각형 9" width="13.387" height="0.537" transform="translate(0 11.92) rotate(-62.924)" fill="#959595"/>
        <rect id="사각형_10" data-name="사각형 10" width="6.44" height="1.667" transform="translate(0.097 8.068) rotate(-62.924)" fill="#959595"/>
      </g>
    </g>
  </g>
</svg>
