<svg xmlns="http://www.w3.org/2000/svg" width="42" height="42" viewBox="0 0 42 42">
  <g id="그룹_135" data-name="그룹 135" transform="translate(-81 -181)">
    <rect id="사각형_1147" data-name="사각형 1147" width="42" height="42" transform="translate(81 181)" fill="#fff"/>
    <path id="Icon_awesome-toolbox" data-name="Icon awesome-toolbox" d="M35.341,15.091,32.16,11.91a2.25,2.25,0,0,0-1.591-.659H27V5.625A3.375,3.375,0,0,0,23.625,2.25H12.375A3.375,3.375,0,0,0,9,5.625V11.25H5.432a2.251,2.251,0,0,0-1.591.659L.659,15.091A2.25,2.25,0,0,0,0,16.682V22.5H9V21.375a1.125,1.125,0,0,1,1.125-1.125h2.25A1.125,1.125,0,0,1,13.5,21.375V22.5h9V21.375a1.125,1.125,0,0,1,1.125-1.125h2.25A1.125,1.125,0,0,1,27,21.375V22.5h9V16.682A2.25,2.25,0,0,0,35.341,15.091ZM22.5,11.25h-9V6.75h9ZM27,25.875A1.125,1.125,0,0,1,25.875,27h-2.25A1.125,1.125,0,0,1,22.5,25.875V24.75h-9v1.125A1.125,1.125,0,0,1,12.375,27h-2.25A1.125,1.125,0,0,1,9,25.875V24.75H0V31.5a2.25,2.25,0,0,0,2.25,2.25h31.5A2.25,2.25,0,0,0,36,31.5V24.75H27Z" transform="translate(83.5 183.5)" fill="#e1e1e4"/>
  </g>
</svg>
