<svg xmlns="http://www.w3.org/2000/svg" width="42" height="42" viewBox="0 0 42 42">
  <g id="그룹_137" data-name="그룹 137" transform="translate(-81 -182)">
    <rect id="사각형_1145" data-name="사각형 1145" width="42" height="42" transform="translate(81 182)" fill="#fff"/>
    <path id="Icon_map-clothing-store" data-name="Icon map-clothing-store" d="M42.153,11.652a.966.966,0,0,1-.171.774L37.133,19.64a1.078,1.078,0,0,1-.873.432,2.509,2.509,0,0,1-.44-.045l-3.886-.954V36.165a.864.864,0,0,1-.9.9H12.144a.864.864,0,0,1-.9-.9V19.074l-3.49.963a.822.822,0,0,1-.98-.387l-4.813-7.2a.907.907,0,0,1-.126-.756.877.877,0,0,1,.495-.576L12.144,6.48h4.5a.859.859,0,0,1,.9.9c0,1.853,2.6,3.166,4.453,3.166s4.543-1.3,4.543-3.166a.864.864,0,0,1,.9-.9h4.5l9.715,4.552a.968.968,0,0,1,.5.621Z" transform="translate(80.198 181.339)" fill="#e1e1e4"/>
  </g>
</svg>
